<svg width="40" height="40" viewBox="0 0 40 40" fill="none" xmlns="http://www.w3.org/2000/svg">
<g clip-path="url(#clip0_617_4269)">
<g clip-path="url(#clip1_617_4269)">
<path d="M3.08181 6.63563C-0.810214 10.5347 -0.805519 16.8492 3.09354 20.7413L17.1874 6.62624C13.2884 2.73422 6.97382 2.73891 3.08181 6.63798V6.63563Z" fill="white"/>
<path d="M40.167 16.7767L40.1341 10.6946L36.4956 7.09361L32.8571 3.49268L26.7749 3.52554L6.8125 23.7063L13.5097 30.3307L20.2069 36.9551L40.167 16.7767ZM30.7937 16.0913C29.0519 16.0913 27.6411 14.6781 27.6411 12.9387C27.6411 11.1969 29.0519 9.7861 30.7937 9.7861C32.5355 9.7861 33.9463 11.1969 33.9463 12.9387C33.9463 14.6805 32.5355 16.0913 30.7937 16.0913Z" fill="white"/>
</g>
</g>
<defs>
<clipPath id="clip0_617_4269">
<rect width="40" height="40" fill="white"/>
</clipPath>
<clipPath id="clip1_617_4269">
<rect width="40" height="33.4601" fill="white" transform="translate(0.166016 3.49487)"/>
</clipPath>
</defs>
</svg>
